<!-- Generator: Adobe Illustrator 23.0.6, SVG Export Plug-In  -->
<svg version="1.1" xmlns="http://www.w3.org/2000/svg" xmlns:xlink="http://www.w3.org/1999/xlink" x="0px" y="0px" width="1024px"
	 height="1024px" viewBox="0 0 1024 1024" style="enable-background:new 0 0 1024 1024;" xml:space="preserve">
<style type="text/css">
	.st0{fill:#00AFE9;}
	.st1{fill:#FFFFFF;}
</style>
<defs>
</defs>
<path class="st0" d="M824,1024H200C90,1024,0,934,0,824V200C0,90,90,0,200,0h624c110,0,200,90,200,200v624
	C1024,934,934,1024,824,1024z"/>
<path id="path4050_1_" class="st1" d="M491.9,218.1c-15.6,0-18.8,2.7-23.9,8.4c-2-0.1-4.1-0.2-6.2-0.2c-12,0-27.4,1.8-40.5,10.5
	c-12.7,8.4-18.7,23.2-12,34c0,0,4.5-6.6,19.4-6.6c2.1,0,4.4,0.2,6.9,0.4c20.6,2.4,35.9,13.3,34,41.9c-1.6,28.6-12.4,60.5-56.3,60.9
	c0,0-5.7,0-11.7-0.6c-20.4-2.2-26.9-15.1-26.9-15.1s17.7-4.8,17.8-27.2c-0.1-15.2-13.4-29.2-32.6-34.8c-6.3-1.8-13.2-2.7-20.3-2.7
	c-22.6,0-48,9.5-65.1,31.8c-38.8,51.2-41.9,125.8-32.5,195.2c9.5,69.5,53.6,134,54.9,135.7c0.9,1.2,1.8,1.9,2.7,1.9
	c0.5,0,1-0.2,1.5-0.7c19-18.5,37.2-43.8,45-60.7c8.3,6.6,4,20.7-0.6,35.8c-4.3,15.4-14.9,35.8-18.7,42.4c-3.7,6.4-8.6,13.9-2,17.9
	c0.7,0.4,1.5,0.6,2.6,0.6c8.5,0,28.6-14.9,51.1-44.8c25.1-33.6,37.8-63.5,37.8-63.5c1.8,0.4,4.9,3.5,4.4,12
	c-0.3,8.6-9.2,40.6-26.4,70.4c-17.4,29.8-33.5,48.4-36.7,52.6c-2,2.5-0.3,4,1,5c1.3,0.9,32,29.6,76.8,53.9
	c53,28.2,76.5,33.3,76.5,33.3s23.4-4.9,76.4-33.2c44.7-24.3,75.6-53.2,76.7-54.2c1.3-0.9,2.9-2.3,1-5c-3.1-4-19.2-22.8-36.5-52.5
	c-17.2-29.6-26.3-61.8-26.5-70.3c-0.4-8.6,2.5-11.4,4.3-12.1c0,0,12.9,30,38,63.5c22.5,29.9,42.4,44.8,51,44.8
	c1.1,0,1.9-0.2,2.7-0.6c6.4-3.9,1.6-11.5-2.1-17.9c-3.5-6.6-14.2-26.9-18.8-42.4c-4.4-15.2-8.9-29.3-0.4-35.8
	c7.8,16.9,25.8,42.3,44.9,60.5c0.5,0.5,1.1,0.8,1.6,0.8c0.8,0,1.7-0.7,2.5-1.8c1.4-1.9,45.6-66.2,55-135.8
	c9.5-69.5,6.3-144-32.5-195.2c-17-22.4-42.5-31.9-65.3-31.9c-7.1,0-13.9,0.9-20.1,2.7c-19.3,5.8-32.5,19.9-32.4,35
	c0,22.4,17.8,27.2,17.8,27.2s-5.9,12.5-27.1,15.1c-4,0.5-7.8,0.7-11.5,0.7c-15.9,0-29.3-5.1-41.7-22.5c-12-16.8-11.6-51.4-12.3-62.9
	c-0.5-11.7-3.1-38-15.4-48.7c-12.3-11-27.2-14.7-45.9-15.4C494.2,218.1,493,218.1,491.9,218.1"/>
</svg>
